<svg version="1.1" id="Layer_1" xmlns="http://www.w3.org/2000/svg" xmlns:xlink="http://www.w3.org/1999/xlink" x="0px" y="0px"
	 width="100%" viewBox="0 0 816 768" enable-background="new 0 0 816 768" xml:space="preserve">
<path fill="#000000" opacity="1.000000" stroke="none" 
	d="
M285.444153,769.000000 
	C284.711487,764.610291 282.899200,760.642883 281.536407,756.552856 
	C280.353119,753.001587 278.040833,755.007385 275.826599,755.015442 
	C276.894623,757.211182 278.994354,755.264832 280.097656,757.029236 
	C279.069153,758.567261 277.737671,759.707947 275.761414,758.919189 
	C273.777679,758.127441 272.677399,756.550964 272.692444,754.231323 
	C272.707397,751.927917 272.911438,749.475769 275.454224,748.977417 
	C279.969147,748.092346 278.907379,745.339783 278.037262,742.584839 
	C277.187958,739.895813 275.700806,737.329712 275.308472,734.592773 
	C274.674988,730.173706 272.249176,729.821045 268.624756,730.455139 
	C241.002197,735.287720 213.116898,737.023376 185.119431,737.418579 
	C163.788452,737.719666 142.620636,736.227112 121.585297,732.497620 
	C103.945084,729.370117 86.992867,724.173035 70.923393,716.334656 
	C51.765251,706.989624 34.667694,694.797546 20.480928,678.685974 
	C17.709087,675.538025 17.444988,673.011292 19.473364,669.362183 
	C26.504606,656.713257 23.616396,658.521912 38.192944,660.184143 
	C54.046768,661.992126 69.836876,664.540527 85.852135,664.749695 
	C89.507111,664.797363 93.153954,665.306458 96.809769,665.508423 
	C99.190186,665.639954 101.683945,666.365173 104.555176,664.393738 
	C93.618210,658.423218 83.701767,651.828735 74.194199,644.661133 
	C62.054165,635.509033 51.200058,625.022888 42.498936,612.465698 
	C39.375416,607.957886 36.486099,603.287537 33.349163,598.789490 
	C32.008774,596.867493 32.264545,595.437683 33.971275,594.062378 
	C34.229736,593.854065 34.539413,593.708923 34.796116,593.498779 
	C47.115128,583.414673 46.929764,583.669312 59.797062,593.004822 
	C79.580536,607.358215 101.551056,616.855896 126.020607,621.578186 
	C126.066467,618.901794 124.833336,617.145569 123.733299,615.408752 
	C112.161095,597.138184 101.094383,578.497803 92.939796,558.488403 
	C83.529343,535.397400 75.866798,511.688568 70.661453,487.150360 
	C65.806717,464.264954 63.216526,441.156067 62.419209,417.932922 
	C61.787262,399.526398 62.804562,381.040344 65.019402,362.632355 
	C66.752609,348.227295 69.359619,334.049255 72.886818,320.033997 
	C77.265755,302.634338 82.241409,285.415070 89.188766,268.800049 
	C96.196587,252.040421 103.899521,235.678894 113.261574,220.070587 
	C126.763924,197.559570 142.573700,176.872162 160.282608,157.514130 
	C176.650558,139.621948 195.100677,124.129166 214.838776,110.300507 
	C237.924377,94.126556 262.904022,81.313339 289.520721,71.734665 
	C311.062897,63.982204 333.120728,58.801758 355.763336,55.355003 
	C387.810608,50.476631 419.826202,50.395348 451.720581,55.119419 
	C483.391663,59.810413 513.908386,68.789459 543.173096,82.240494 
	C561.087708,90.474648 578.220764,99.989174 594.304138,111.118324 
	C620.372375,129.156647 643.934509,150.180847 664.337463,174.627930 
	C672.989380,184.994720 681.314575,195.616074 688.894958,206.742432 
	C700.711304,224.086258 710.708191,242.511185 719.458313,261.612732 
	C730.876831,286.539459 738.820679,312.579926 744.446167,339.339447 
	C752.381042,377.085022 753.980774,415.159180 750.393311,453.562714 
	C746.894165,491.020721 737.644836,526.971863 723.223572,561.615173 
	C717.916626,574.363831 711.448059,586.596863 704.832031,598.727600 
	C703.894775,600.445984 702.812805,602.104248 702.793274,604.814514 
	C709.371826,603.966675 715.405090,602.063354 721.159241,599.838196 
	C743.210754,591.310669 763.728027,580.056641 781.240906,563.896851 
	C783.808044,561.528076 785.965454,561.528137 788.721130,563.541077 
	C801.741455,573.051819 800.970337,570.532043 793.589111,583.873596 
	C780.960510,606.699707 762.168152,623.710388 741.384155,638.810181 
	C739.107849,640.463989 736.864502,642.163147 734.034119,644.265930 
	C741.120422,645.754639 747.582214,644.136902 753.949890,643.463074 
	C772.165161,641.535461 790.176025,638.258667 807.659424,632.689758 
	C812.878113,631.027466 814.497437,634.227661 816.757935,637.763550 
	C817.000000,642.689270 817.000000,647.378479 816.752136,652.753784 
	C812.126343,658.223083 808.053223,663.334412 803.318848,667.734131 
	C780.340210,689.088013 752.783264,702.055908 722.773071,709.757202 
	C702.941956,714.846313 682.502197,717.174194 662.066040,718.029114 
	C637.274292,719.066223 612.427673,718.565979 587.725891,715.953613 
	C581.250305,715.268738 580.831726,714.025391 577.362549,723.131287 
	C573.632324,732.922485 570.043701,742.770264 566.578857,752.658386 
	C565.362549,756.129456 563.716370,756.750977 560.672546,754.756958 
	C557.332520,752.568970 553.822327,750.642822 550.429565,748.532959 
	C529.729797,735.660706 508.270599,724.483521 484.839020,717.235718 
	C450.177643,706.514282 416.211914,709.153809 382.511993,721.312927 
	C358.279572,730.056213 335.617706,741.953430 313.804047,755.491699 
	C306.789093,759.845398 299.182251,763.346924 293.000000,769.000000 
	C290.629425,769.000000 288.258881,769.000000 285.444153,769.000000 
M722.380493,496.882751 
	C722.576843,497.121735 722.753174,497.383209 722.981201,497.586731 
	C723.054443,497.652130 723.360474,497.613525 723.397705,497.540222 
	C725.762024,492.875305 726.103760,487.728241 727.112732,482.707458 
	C732.320068,456.795227 733.511963,430.642242 733.000122,404.279724 
	C732.255432,365.922058 724.693237,328.906860 711.607117,293.024811 
	C697.340027,253.904678 676.672546,218.443863 649.524597,186.722214 
	C633.972046,168.549438 616.969360,151.957855 597.975098,137.526962 
	C562.729370,110.749023 523.801880,91.522095 480.728180,80.547928 
	C448.782776,72.409004 416.437866,69.832550 383.728760,71.662605 
	C363.124420,72.815407 342.721771,76.310722 322.780823,81.657921 
	C304.305420,86.612137 286.377808,93.304649 269.112427,101.639565 
	C247.128830,112.252220 226.845581,125.496208 207.656509,140.574860 
	C186.705383,157.038132 168.618530,176.250000 152.439987,197.260178 
	C140.652588,212.567825 130.387177,228.898819 121.464096,246.109665 
	C111.163399,265.977692 102.526321,286.501221 96.407738,307.979889 
	C90.300339,329.419312 85.882362,351.172638 83.734909,373.509125 
	C80.618355,405.925659 81.688133,438.110962 87.170769,470.030945 
	C91.534996,495.439514 98.660004,520.172241 108.701973,544.130920 
	C120.560623,572.424011 135.692001,598.669861 153.706039,623.375610 
	C155.281464,625.536316 157.094742,626.785400 159.939575,626.754944 
	C170.102020,626.646362 180.295105,627.166321 190.417511,626.521240 
	C195.274765,626.211731 200.626083,626.877258 205.454376,624.117615 
	C204.497131,622.326050 203.815155,621.001892 203.090820,619.701355 
	C193.353989,602.218140 185.058258,584.089539 178.726288,565.090454 
	C173.830063,550.399353 170.141998,535.385742 167.065674,520.222290 
	C166.590103,517.878174 166.130692,516.031433 163.189804,516.132812 
	C159.666809,516.254150 158.762970,514.143433 158.683441,510.984100 
	C158.566254,506.329865 157.972580,501.688416 157.826401,497.033875 
	C157.695114,492.853760 155.885880,490.975281 151.609634,491.274994 
	C141.650879,491.972931 131.663010,492.314178 121.723320,493.205750 
	C114.623215,493.842590 110.805550,500.047577 112.927017,506.680756 
	C114.260391,506.503662 114.139793,505.254517 114.489235,504.433929 
	C115.734970,501.508484 116.549538,497.940521 121.031342,499.686493 
	C125.133240,501.284454 124.586296,504.409637 123.169571,507.566956 
	C121.729294,510.776764 122.680725,513.874939 123.781113,516.783142 
	C124.800781,519.478027 126.755356,520.672729 129.378494,517.992126 
	C128.495987,516.319702 127.684258,514.883301 126.965401,513.401855 
	C123.444221,506.145111 125.189667,499.902527 132.061142,495.909698 
	C137.211929,492.916718 142.563156,492.731293 147.659439,496.028625 
	C152.142929,498.929413 154.342239,504.804260 152.921173,510.084106 
	C151.351532,515.916016 147.654816,519.618103 141.411057,520.236389 
	C139.610596,520.414734 138.440018,521.205566 137.336426,522.671509 
	C130.546097,531.691345 121.089661,530.941528 115.457588,520.997009 
	C114.799515,519.835083 114.291145,518.781860 112.853371,518.202881 
	C103.504814,514.438171 100.571754,508.183594 103.630577,498.505280 
	C104.264343,496.500061 104.446861,495.026886 103.167839,492.994812 
	C100.391930,488.584534 102.374290,485.176422 107.502350,484.919739 
	C116.140648,484.487366 124.812935,484.446198 133.413376,483.632294 
	C140.899414,482.923889 148.389191,483.132324 155.861389,482.658539 
	C162.453720,482.240601 162.988403,481.722534 162.823395,475.184021 
	C162.499466,462.347198 162.813629,449.504242 164.088806,436.764099 
	C166.937225,408.305847 173.867065,380.769043 184.500397,354.206421 
	C196.295105,324.742615 212.731079,298.135162 233.867416,274.428436 
	C254.663879,251.102859 278.516846,231.858566 306.645508,217.861511 
	C330.861847,205.811249 356.206177,197.779709 382.973785,194.361328 
	C405.908875,191.432373 428.937347,191.829666 451.643921,195.905899 
	C486.862366,202.228256 519.057861,216.104050 548.434570,236.675766 
	C577.921082,257.324371 601.849854,283.163483 620.982239,313.461761 
	C633.723083,333.638245 643.942566,355.079224 651.328430,377.856140 
	C658.907959,401.230469 664.384949,424.956726 665.474304,449.609161 
	C665.650024,453.585724 665.641479,457.752258 667.056946,461.731140 
	C672.100525,458.399109 675.851074,454.743835 675.060181,448.329102 
	C674.931824,447.287933 675.631531,446.084869 676.121765,445.037750 
	C678.172363,440.658020 681.849121,438.883789 686.830200,439.786224 
	C691.411865,440.616302 693.796570,443.536072 694.072632,448.573608 
	C694.143066,449.858673 693.532959,451.238068 694.564880,452.474030 
	C695.017517,452.533203 695.516663,452.699951 695.990417,452.645325 
	C705.054016,451.601379 707.239868,453.367065 708.525818,462.203003 
	C708.873474,464.591888 708.293518,467.573425 710.951660,469.218018 
	C713.514404,468.072357 712.858887,466.006775 712.809753,464.319305 
	C712.577209,456.328125 712.246765,448.339447 711.901917,440.352020 
	C711.597778,433.307129 711.331909,433.028717 704.284607,433.251404 
	C696.463989,433.498474 688.648560,433.906006 680.828430,434.172485 
	C676.849731,434.308105 676.053711,432.526581 678.129333,429.266052 
	C678.664856,428.424805 679.106262,427.399902 679.871521,426.849640 
	C683.555847,424.200226 682.373901,421.167786 680.673035,418.117859 
	C679.864990,416.668793 678.884460,415.306122 677.890747,413.972351 
	C675.472351,410.726257 676.203857,408.108582 679.421509,405.988068 
	C683.205688,403.494232 683.785217,407.092163 685.224792,409.074188 
	C687.466187,412.160156 688.358215,416.337097 692.328674,418.329285 
	C695.018616,414.857483 695.579712,411.640259 693.368469,407.962189 
	C691.835266,405.411865 690.288635,402.822845 689.631226,399.823730 
	C688.891846,396.450012 690.529053,394.075134 693.276672,392.981049 
	C696.514893,391.691528 696.314697,395.108734 697.198425,396.809174 
	C697.956360,398.267609 698.319092,399.977142 700.206726,400.415009 
	C708.367615,395.796143 712.090332,395.508301 715.485291,399.289062 
	C717.092896,401.079285 717.942810,403.265625 718.143555,405.639679 
	C718.530762,410.218994 716.591797,413.977448 712.526550,417.976501 
	C717.251709,417.212799 718.964417,418.621552 719.113525,422.344604 
	C720.099243,446.965515 721.219788,471.580963 722.380493,496.882751 
M267.215759,612.698547 
	C284.907562,607.354980 302.350830,601.361816 319.403687,594.166199 
	C330.193848,589.613281 330.361664,590.016724 337.532257,599.764954 
	C337.925446,600.299438 338.360596,600.810303 338.825806,601.283325 
	C341.019196,603.513733 340.706360,605.545410 338.705109,607.821533 
	C334.196960,612.948853 329.722015,618.115784 325.472290,623.456604 
	C321.629517,628.286011 316.896667,632.437195 314.073578,638.258789 
	C334.097198,628.732849 355.192688,622.488770 376.660217,616.302979 
	C375.418060,613.896240 373.693787,613.153687 372.165009,612.293640 
	C367.525818,609.683655 362.731049,607.340088 358.167908,604.607117 
	C348.466766,598.796631 339.796204,592.019836 335.647705,580.822021 
	C332.492828,572.306274 331.832855,563.504944 333.058350,554.751343 
	C333.725800,549.983826 331.783234,547.135742 329.007782,544.300110 
	C310.786102,525.683350 301.358215,503.119781 298.938477,477.432281 
	C298.682129,474.710938 298.067902,473.035004 295.311401,471.691284 
	C277.615356,463.065460 274.136932,447.164795 286.835144,432.122589 
	C289.471680,428.999359 289.522888,426.431183 288.356842,423.133179 
	C283.764313,410.144012 281.254730,396.815918 281.747925,382.979614 
	C282.847961,352.120514 295.765930,328.319763 323.413940,313.419647 
	C326.192963,311.921997 326.746216,310.496094 325.888153,307.526947 
	C323.755249,300.146271 322.612915,292.597504 322.861603,284.845093 
	C323.315674,270.691010 332.828735,260.407349 346.803406,258.603546 
	C352.669800,257.846375 358.410187,257.855316 364.193634,258.785309 
	C368.102356,259.413849 370.451538,258.333923 371.245209,253.973892 
	C371.955139,250.074097 373.466705,246.333481 375.735168,242.938812 
	C389.882721,221.767349 415.768005,218.003479 434.128204,224.912415 
	C450.755402,231.169220 463.124908,246.317795 462.975739,262.070129 
	C462.917725,268.198334 464.398590,271.156097 470.539978,272.997803 
	C479.755066,275.761261 485.301025,284.312805 485.289551,293.405060 
	C485.276764,303.535797 479.504333,311.544067 469.777161,314.925781 
	C463.624756,317.064697 463.217712,318.169830 466.086853,324.156860 
	C469.887756,332.088165 475.331665,338.818512 481.757660,344.661224 
	C494.316650,356.080292 507.340942,366.993225 519.759705,378.559113 
	C530.393372,388.462555 539.928040,399.392181 546.049866,412.831604 
	C553.898438,430.061859 559.506653,447.975525 560.923462,466.916412 
	C562.449280,487.315247 558.351196,506.238464 545.264099,522.745300 
	C535.415710,535.167114 522.854675,543.836792 509.192657,551.409729 
	C502.369385,555.191956 494.661255,557.651428 490.281006,565.354004 
	C482.649109,578.774597 469.914673,585.795471 455.489105,589.382141 
	C438.358337,593.641418 421.167297,592.784363 404.275665,587.407104 
	C398.327850,585.513672 392.369080,583.654663 385.224548,581.405029 
	C386.658875,591.466980 387.974823,600.422546 389.193787,609.391296 
	C389.655487,612.788147 391.168945,613.730408 394.643036,613.026367 
	C408.891968,610.138245 423.396179,609.339600 437.862000,609.325439 
	C468.410370,609.295593 498.097748,614.797546 526.983704,624.694092 
	C528.751404,625.299622 530.533508,626.350281 533.038330,625.110474 
	C526.846741,619.428833 521.001404,614.030273 515.117310,608.674194 
	C507.483398,601.725464 507.470093,601.740051 512.668579,592.874939 
	C517.155945,585.222534 517.094238,585.385193 525.357849,588.520691 
	C552.074951,598.658081 579.713074,605.233948 607.919067,609.566223 
	C611.289185,610.083923 613.338623,609.026550 615.118408,605.852966 
	C626.934448,584.783936 635.221191,562.303284 640.474915,538.880066 
	C647.581299,507.197388 649.724487,475.134888 646.033875,442.647919 
	C642.057251,407.643127 632.374084,374.432678 616.112671,343.331665 
	C594.635559,302.255310 564.876831,268.459839 524.854736,244.386917 
	C477.602081,215.964981 426.907288,205.574615 372.393860,216.050507 
	C331.973724,223.818100 296.625183,241.880798 266.309326,269.521851 
	C228.607285,303.897430 204.109192,346.464600 191.326660,395.592743 
	C180.443817,437.419678 179.197678,479.801056 187.529861,522.319214 
	C194.289719,556.813965 206.716354,589.059937 225.956635,618.599976 
	C227.572571,621.080933 229.012955,621.847412 232.010559,621.249512 
	C243.605835,618.936890 255.106232,616.284363 267.215759,612.698547 
M437.514069,571.230347 
	C431.247101,572.429199 424.980103,573.628113 417.614929,575.037048 
	C426.304138,577.214966 434.055359,577.352051 441.800629,576.785522 
	C464.677063,575.112183 481.740570,559.827637 485.732697,538.480347 
	C489.173309,520.082275 484.896912,503.374176 477.234100,486.765076 
	C472.790771,477.134186 466.848511,469.570892 457.848572,464.141815 
	C455.162445,462.521484 453.171600,459.961029 451.130219,457.504333 
	C442.188141,446.742798 441.594788,433.783630 440.864227,420.729767 
	C440.580597,415.661896 442.080292,412.733490 446.973969,410.865448 
	C455.517883,407.604095 459.585175,400.793243 459.836426,391.834320 
	C459.971313,387.023926 459.502838,382.192810 459.223969,377.375824 
	C458.998199,373.475739 458.209198,369.578430 459.062622,365.044464 
	C464.695007,366.528870 469.026550,369.695679 473.567200,372.192627 
	C488.607239,380.463257 500.080383,391.934021 506.050903,408.539917 
	C513.410217,429.008484 509.525421,453.195984 491.951385,467.748779 
	C487.984985,471.033295 488.003693,473.822540 490.221649,477.980713 
	C498.113617,492.776459 501.831268,508.679474 502.288635,525.426331 
	C502.384644,528.941223 500.173309,533.792358 503.588104,535.689880 
	C506.911560,537.536621 510.134277,533.388916 513.135437,531.568054 
	C529.637268,521.556030 541.321960,507.723053 545.246521,488.411987 
	C548.052124,474.606873 545.894470,460.976746 542.702515,447.444794 
	C537.290100,424.499725 527.134521,404.369415 509.021149,388.676575 
	C496.816803,378.103119 484.769470,367.342957 472.833282,356.467194 
	C463.138245,347.633484 454.523254,337.796478 450.810730,324.903961 
	C448.878571,318.194214 447.634705,311.717102 441.620758,306.917053 
	C438.910583,304.753937 437.845459,301.226379 433.423492,303.934174 
	C430.608887,305.657684 426.427124,304.398804 424.366486,308.225861 
	C417.282227,321.382782 410.856903,334.646484 413.253235,350.327301 
	C414.006317,355.255249 414.403503,360.247498 414.755859,365.225037 
	C415.975067,382.447632 416.806824,399.648804 406.787903,415.055450 
	C404.731720,418.217346 406.615936,419.573761 408.929718,420.875580 
	C415.019562,424.301971 421.128693,427.694397 427.247253,431.069427 
	C437.725891,436.849579 435.826294,434.897308 431.359680,444.504669 
	C429.718872,448.033844 427.866119,448.730377 424.378021,446.713867 
	C414.434357,440.965210 404.318085,435.515961 394.304291,429.887299 
	C391.804596,428.482269 389.288971,427.431580 386.365845,427.166260 
	C373.256012,425.976410 360.945709,422.337738 349.702454,415.256622 
	C329.151825,402.313568 319.238861,378.873169 329.669739,354.741272 
	C336.017029,340.056854 347.348755,329.962860 359.887726,320.917236 
	C365.495514,316.871826 371.247589,313.017792 377.424500,309.791840 
	C363.393951,314.259857 349.298340,318.419525 335.886658,324.173340 
	C317.061890,332.249481 304.111053,346.013245 298.741119,366.452667 
	C294.007080,384.471527 296.867035,401.749298 302.208282,419.000366 
	C303.291565,422.499268 304.987793,424.356903 308.918304,425.198120 
	C322.543152,428.114197 328.735565,435.921600 329.087036,449.743591 
	C329.145569,452.045959 329.612793,453.860931 331.497681,455.420410 
	C338.038940,460.832458 344.201080,466.739624 351.004578,471.788513 
	C359.383423,478.006470 368.575043,482.564728 379.523132,482.196716 
	C388.332397,481.900665 397.151184,481.817291 405.966309,481.784454 
	C416.377716,481.745636 426.600342,483.190399 436.374359,486.849976 
	C452.777679,492.991730 464.787994,503.545044 468.752167,521.288086 
	C472.276306,537.061768 470.318298,551.513916 456.744873,562.380981 
	C451.316864,566.726746 444.864685,569.018311 437.514069,571.230347 
M540.277344,720.210205 
	C544.954163,722.661621 549.630920,725.112976 554.055420,727.432068 
	C555.891724,726.563782 556.057434,725.098633 556.502136,723.908325 
	C562.612183,707.552307 568.656921,691.171875 574.737061,674.804688 
	C577.414917,667.596130 577.376343,667.716553 570.315491,664.065796 
	C553.268372,655.252014 535.648071,647.793457 517.376587,641.970276 
	C495.905182,635.127319 474.016205,630.206421 451.396210,629.257324 
	C415.672119,627.758423 381.181183,633.373901 347.669403,646.094971 
	C325.784943,654.402344 305.002502,664.667053 284.964142,676.658020 
	C280.826782,679.133789 280.239807,681.619690 281.609680,685.997009 
	C285.434387,698.218506 288.683289,710.618958 292.369232,722.885681 
	C294.162445,728.853394 295.536407,734.997986 298.525909,740.992188 
	C301.861725,739.252319 305.021332,737.808289 307.979675,736.029541 
	C335.752899,719.330627 364.530182,704.909729 396.163239,696.928711 
	C420.169830,690.871826 444.313629,688.939636 468.890533,693.494812 
	C494.057800,698.159424 517.414124,707.421204 540.277344,720.210205 
M274.967529,652.481262 
	C282.664062,643.374451 290.360626,634.267639 298.057190,625.160828 
	C297.863678,624.770874 297.670197,624.380981 297.476685,623.991089 
	C231.363098,645.668091 164.742096,657.492310 96.246986,634.894958 
	C97.173035,636.099731 98.132858,636.976196 99.214088,637.661011 
	C113.849976,646.931458 128.972610,655.278931 145.186188,661.495422 
	C147.550369,662.401917 149.579300,663.299072 149.214890,666.289185 
	C148.691895,670.580322 148.069336,674.859253 147.530731,679.148621 
	C147.263672,681.275513 146.221420,682.090698 143.993637,682.471985 
	C118.153069,686.894409 92.259537,685.504639 66.346291,683.465759 
	C63.051601,683.206543 59.682072,682.418091 55.731377,683.984314 
	C58.546558,686.045837 60.700523,687.869324 63.078484,689.327393 
	C95.079178,708.948364 130.602158,716.022705 167.401337,717.630371 
	C199.063782,719.013733 230.571793,716.265808 261.914337,711.682007 
	C267.552063,710.857483 268.290131,710.050842 266.771027,704.620117 
	C264.127563,695.170044 261.233154,685.790405 258.473816,676.372437 
	C257.773407,673.981873 256.751648,671.406372 259.321625,669.508606 
	C265.456299,664.978638 269.369019,658.443604 274.967529,652.481262 
M586.188477,625.455750 
	C576.868408,623.515808 567.548401,621.575867 557.899780,619.567505 
	C558.604553,622.130249 560.128479,623.446533 561.567688,624.759949 
	C570.910522,633.286011 580.318542,641.740723 589.645020,650.284485 
	C593.199036,653.540283 598.700073,656.360657 592.056763,662.504639 
	C598.849243,664.701965 597.611206,668.545959 595.822083,673.028931 
	C593.298035,679.353516 591.402039,685.926514 589.144104,692.360596 
	C588.142334,695.215149 588.556030,696.696106 592.009460,696.864563 
	C602.805237,697.391357 613.583191,698.464783 624.382080,698.708252 
	C648.346436,699.248779 672.245605,698.919250 696.048401,695.031677 
	C719.735718,691.162903 742.486816,684.840576 763.516907,673.080933 
	C770.087891,669.406494 776.310425,665.164185 782.182434,660.254883 
	C780.805847,658.958130 779.768738,659.209839 778.835022,659.391052 
	C755.702271,663.883057 732.370422,665.217834 708.842346,664.277100 
	C695.277466,663.734741 695.471313,663.943909 692.655762,650.577881 
	C691.729980,646.182922 693.118103,644.266724 696.888184,642.523071 
	C711.284424,635.864990 724.388611,627.014038 737.272583,617.862427 
	C739.622314,616.193420 742.369873,614.671204 744.329529,611.476013 
	C743.115967,611.768005 742.614929,611.810120 742.181763,612.003967 
	C716.990051,623.279236 690.526733,629.476074 663.048340,630.982483 
	C637.525574,632.381592 612.147766,630.580017 586.188477,625.455750 
M445.414001,552.002014 
	C451.331909,548.358887 455.003052,543.106445 455.445007,536.180786 
	C456.204895,524.273315 451.984192,511.873932 439.704254,505.058380 
	C424.495056,496.617035 408.121887,495.083313 391.275574,496.805756 
	C375.165161,498.453033 360.146179,496.072632 346.460022,486.859131 
	C339.388611,482.098663 333.024078,476.508453 326.465088,471.129181 
	C324.962372,469.896729 323.390259,467.281433 321.003265,469.511292 
	C318.361053,471.979584 313.115448,472.230927 314.235077,478.050507 
	C315.490021,484.573608 316.141174,491.220642 318.219025,497.568024 
	C324.166809,515.737061 333.842957,531.426819 349.752350,542.484924 
	C357.800598,548.079041 366.518341,552.705078 374.872406,557.867493 
	C376.938812,559.144470 379.029144,559.803284 381.448608,559.785950 
	C392.440704,559.707214 403.446167,560.014160 414.422028,559.570007 
	C424.939972,559.144348 435.240997,557.184570 445.414001,552.002014 
M663.993652,611.568359 
	C666.305176,611.293945 668.619446,611.040833 670.927368,610.739014 
	C673.277039,610.431702 675.485779,609.911438 676.881409,607.647217 
	C678.627075,604.815247 680.584778,602.113220 682.312683,599.271057 
	C697.344299,574.544800 709.342529,548.424744 717.659180,520.701538 
	C719.322693,515.156067 721.902405,509.692749 722.105713,503.649689 
	C718.951599,503.254944 715.372070,505.257721 714.400940,501.121582 
	C713.596619,497.696167 711.494690,497.066986 708.517883,497.279266 
	C704.535339,497.563293 700.548340,497.868652 696.558777,497.949615 
	C690.970215,498.063049 685.377686,497.978210 679.755005,497.978210 
	C680.540161,491.901215 682.774780,489.419922 688.102417,489.167175 
	C694.923401,488.843628 701.761047,488.886963 708.588806,488.680878 
	C711.566223,488.591003 713.859558,487.539307 713.658325,483.951172 
	C713.478760,480.749237 711.875122,479.301239 708.562134,479.138000 
	C701.838684,478.806793 701.530457,478.368622 700.999329,471.543243 
	C700.755493,468.408936 701.286377,465.143066 699.657349,462.240417 
	C698.478149,460.139221 696.673279,459.049774 694.226746,459.966980 
	C691.317932,461.057495 690.469849,463.577087 690.307739,466.353821 
	C690.174072,468.642853 691.538452,469.636017 693.730408,469.687408 
	C695.299561,469.724213 696.646118,470.023468 697.214966,471.848633 
	C698.727539,476.701691 693.375183,483.516174 688.686768,481.929810 
	C684.833618,480.626099 682.755920,482.181641 680.356506,484.287048 
	C679.104553,485.385559 677.845703,486.480042 676.536072,487.507568 
	C675.253235,488.513977 673.861755,488.945679 672.487366,487.660034 
	C671.191589,486.447998 670.371582,485.077057 671.297485,483.237061 
	C671.789307,482.259735 673.216797,481.713928 672.528503,479.799072 
	C670.740906,478.831085 670.117920,475.966492 667.429871,475.190186 
	C666.310669,476.430969 666.410461,477.796661 666.398621,479.103088 
	C666.324646,487.260010 666.136536,495.392761 665.391724,503.541473 
	C663.644409,522.658569 660.347778,541.452759 654.669678,559.792297 
	C649.692810,575.866882 643.783936,591.596863 636.349426,606.715149 
	C634.531860,610.411133 635.451477,611.935059 639.584595,611.857300 
	C647.413879,611.709778 655.246094,611.714417 663.993652,611.568359 
M372.163391,330.687897 
	C361.870697,337.606171 352.257996,345.279480 345.815796,356.129944 
	C338.385254,368.644989 337.449188,381.436523 347.316071,393.215149 
	C357.547546,405.428986 371.204681,410.771881 386.793610,411.864044 
	C389.931885,412.083893 391.719055,410.142822 393.288544,407.943420 
	C397.852051,401.548370 400.274567,394.400787 400.734100,386.544586 
	C401.535919,372.835388 398.752838,359.338440 398.399750,345.685120 
	C398.170502,336.819458 397.571655,328.109985 402.281860,320.043793 
	C402.966064,318.872040 403.867218,317.437805 402.686737,315.162537 
	C392.332611,319.444031 382.274384,324.302704 372.163391,330.687897 
M412.869110,290.878448 
	C424.985718,291.410858 435.506989,289.520630 443.068390,277.977783 
	C449.964874,267.449890 449.928009,255.566559 440.673920,246.687576 
	C429.588715,236.051712 413.353333,233.715912 399.651306,240.875961 
	C388.305878,246.804565 379.530609,262.052490 389.711517,276.580170 
	C395.409576,284.711029 402.513458,289.259949 412.869110,290.878448 
M472.578033,403.780518 
	C470.196106,410.948456 466.058258,416.852417 459.675995,420.958435 
	C457.154480,422.580597 456.176636,424.498901 456.175842,427.502686 
	C456.172119,441.852570 463.627167,451.435059 475.341736,458.523773 
	C477.449066,459.798981 478.887390,458.821228 480.284027,457.735077 
	C485.038727,454.037292 489.248779,449.883606 491.700134,444.177399 
	C497.007812,431.822388 495.608429,419.793274 489.906708,408.073517 
	C486.781982,401.650787 482.540985,396.042908 476.049194,392.289215 
	C473.186005,395.715027 473.928162,399.634949 472.578033,403.780518 
M378.110809,292.716858 
	C380.050873,291.920319 380.077667,290.524658 378.970276,289.135162 
	C376.145020,285.590332 374.160797,281.565338 372.085968,277.585480 
	C371.139252,275.769501 369.346710,275.119537 367.600342,274.693481 
	C361.577850,273.224121 355.441467,272.593048 349.274200,273.400757 
	C342.736359,274.256958 339.370331,277.156067 338.362518,283.227173 
	C337.257538,289.883636 338.329773,296.474396 340.058960,302.952515 
	C340.661041,305.208191 341.935791,305.868835 344.156036,304.974121 
	C355.097900,300.564758 366.615906,297.743103 378.110809,292.716858 
M352.132172,580.265747 
	C357.022949,586.145935 362.605774,590.980957 370.239075,593.046692 
	C371.382080,590.311218 370.770813,588.143188 370.792358,586.009094 
	C370.888123,576.523438 368.320221,568.715820 358.246887,565.326660 
	C354.938446,564.213562 352.714508,560.491272 348.339111,560.994019 
	C346.314056,567.908203 348.838226,573.820068 352.132172,580.265747 
M294.822571,452.428558 
	C296.410309,455.364655 299.029236,457.044769 301.989868,458.304596 
	C307.081909,460.471344 311.597870,459.060883 313.256104,454.790710 
	C315.655182,448.612701 313.773529,442.863800 308.707397,440.893433 
	C300.585999,437.734772 294.025208,442.752777 294.822571,452.428558 
M466.666870,299.458221 
	C468.975739,297.509857 471.366394,295.554932 470.236328,292.010284 
	C468.826233,287.587311 463.078064,284.678833 458.416168,286.464996 
	C455.132050,287.723328 452.221252,290.048401 452.721893,294.180084 
	C453.292084,298.885498 457.681763,301.514923 463.196899,300.753448 
	C464.154022,300.621338 465.064728,300.152618 466.666870,299.458221 
M699.860291,417.639038 
	C697.628906,418.828522 696.760437,420.799530 697.605469,423.049469 
	C698.413208,425.200104 700.638367,424.646698 702.413025,424.655548 
	C704.069824,424.663818 705.746399,424.673462 707.379150,424.438538 
	C709.056458,424.197235 710.766174,423.674744 710.606018,421.426483 
	C710.460022,419.378326 708.854675,419.196716 707.322144,419.239014 
	C704.911804,419.305542 702.787170,418.334778 699.860291,417.639038 
M136.437103,503.775818 
	C134.099792,505.321747 133.381912,507.480225 135.106949,509.677429 
	C136.508011,511.461975 138.741119,511.938599 140.990707,511.022736 
	C142.899292,510.245789 144.898666,509.161072 144.433456,506.784760 
	C143.910751,504.114929 141.546738,503.392700 139.094620,503.235565 
	C138.447159,503.194061 137.785126,503.380066 136.437103,503.775818 
M678.277161,473.477783 
	C679.732605,470.575226 678.111145,465.046967 675.434448,464.030243 
	C673.177795,463.173157 672.267944,464.500916 672.357605,466.454071 
	C672.516052,469.901001 674.294312,472.304993 678.277161,473.477783 
M706.579712,410.820465 
	C708.182312,411.394348 709.868652,412.067505 710.567444,409.691345 
	C710.923889,408.479065 710.438293,407.362762 709.374023,406.685638 
	C707.988953,405.804413 706.477966,405.809082 705.262268,406.932709 
	C703.699829,408.376678 704.578918,409.546936 706.579712,410.820465 
M685.651428,450.607788 
	C687.782593,450.406403 688.115967,449.179688 687.170593,447.567230 
	C686.524292,446.464935 685.302002,446.007751 684.256042,446.972351 
	C682.698914,448.408478 683.567688,449.557068 685.651428,450.607788 
M682.105408,458.533661 
	C684.262146,461.679504 685.331177,460.058167 686.455627,457.716949 
	C683.630249,456.349396 683.630249,456.349396 682.105408,458.533661 
z"/>
<path fill="#000000" opacity="1.000000" stroke="none" 
	d="
M15.468657,769.000000 
	C12.989849,767.000244 12.424471,764.687561 12.535172,761.791931 
	C12.821176,754.310974 12.740306,746.813049 12.676902,739.322998 
	C12.643016,735.319946 14.437444,733.577698 18.431978,733.628418 
	C26.426956,733.730042 34.424065,733.671631 42.420277,733.664734 
	C45.028778,733.662476 47.266106,734.408875 47.289295,737.411682 
	C47.362583,746.903320 47.263538,756.396606 47.161819,765.888489 
	C47.153450,766.669556 46.621353,767.444885 46.166302,768.611450 
	C35.979103,769.000000 25.958210,769.000000 15.468657,769.000000 
M19.217413,736.386108 
	C15.561192,736.748108 15.232374,739.354431 15.391117,742.188416 
	C15.640953,746.648621 16.437738,751.076782 15.552481,755.576843 
	C15.020611,758.280457 16.480213,759.644775 19.192484,759.609131 
	C22.005091,759.572144 24.834120,759.241943 27.626284,759.446045 
	C44.016209,760.644043 46.930763,757.463928 44.459324,741.162598 
	C43.950737,737.808044 42.633991,736.191101 39.006710,736.308777 
	C32.706276,736.513306 26.393991,736.352661 19.217413,736.386108 
z"/>
<path fill="#000000" opacity="1.000000" stroke="none" 
	d="
M224.026718,750.044312 
	C224.874863,746.805054 226.997620,745.364136 230.294647,745.704956 
	C232.670425,745.950500 234.267288,746.967346 234.049927,749.533203 
	C231.657730,751.405762 230.460571,745.725891 227.912811,749.142578 
	C229.258926,751.586853 232.259827,751.079163 233.865952,752.867920 
	C237.440430,747.542419 239.677277,747.277344 242.708923,751.542542 
	C242.481903,751.758728 242.279160,752.101013 242.013916,752.159424 
	C240.517715,752.489014 238.220856,750.373535 237.682419,753.536438 
	C237.491562,754.657593 238.222641,755.732849 239.307800,755.565735 
	C241.132172,755.284973 243.463806,755.837524 244.433731,753.452576 
	C246.831894,747.555908 247.025803,747.480408 252.505295,750.907776 
	C254.265533,747.866943 257.417725,747.813538 259.729645,749.200623 
	C262.920807,751.115112 261.734680,754.624878 261.318817,757.816895 
	C257.499939,757.228210 260.431702,752.996887 257.701294,752.024170 
	C254.930954,753.091248 257.475494,756.616760 255.010803,757.862549 
	C253.117462,758.152100 254.009567,756.152039 253.086121,755.451050 
	C251.936432,756.340637 251.986984,758.721680 249.826477,758.416260 
	C245.249161,757.769348 240.464615,760.051575 236.090164,757.763855 
	C234.211395,756.781372 233.323868,758.048157 232.041550,758.495605 
	C228.988632,759.561157 226.650970,758.908386 225.025833,755.985291 
	C226.870911,753.878235 228.688950,758.148254 230.532013,755.390015 
	C229.761124,752.474243 225.853058,752.830688 224.277832,750.192383 
	C224.006088,750.012756 224.026718,750.044312 224.026718,750.044312 
z"/>
<path fill="#000000" opacity="1.000000" stroke="none" 
	d="
M93.946907,748.838318 
	C97.875221,748.588989 101.370567,750.291443 105.192299,748.680847 
	C107.525406,747.697632 108.656372,750.026733 108.636391,752.285767 
	C108.613190,754.908875 109.965569,758.577942 105.517128,758.746399 
	C102.035065,758.878296 98.563812,757.963379 95.003311,758.852173 
	C94.080093,759.082642 92.749504,757.681335 91.629303,757.042786 
	C86.089989,760.451538 84.756561,760.294861 82.053802,755.933289 
	C83.150955,754.568298 84.133430,755.733154 85.100250,756.122192 
	C86.101967,756.525330 87.000946,756.738037 87.834862,755.718628 
	C88.204208,753.853088 86.786980,753.640259 85.498764,753.264893 
	C83.648415,752.725647 82.080299,751.843567 81.844566,749.674988 
	C81.660675,747.983215 82.412735,746.585632 83.945717,746.083984 
	C85.833382,745.466370 87.852219,745.235474 89.662102,746.610535 
	C90.889961,747.543274 91.441422,749.665039 93.946907,748.838318 
M95.298370,756.034546 
	C97.601570,756.753662 98.443359,754.661011 100.366005,753.950989 
	C98.702599,752.809509 97.596298,751.855286 96.030396,751.795044 
	C94.701553,752.806824 94.265686,754.048645 95.298370,756.034546 
z"/>
<path fill="#000000" opacity="1.000000" stroke="none" 
	d="
M124.526825,748.412109 
	C126.682671,748.720581 127.437973,750.416809 128.839676,751.442078 
	C130.803284,748.605835 133.344528,747.241333 136.306351,749.645325 
	C139.261536,752.044067 136.015854,755.052917 136.459290,757.842590 
	C136.585571,758.637024 133.967026,759.607239 132.550201,758.849854 
	C130.434174,757.718567 128.316849,757.550049 126.226982,758.187195 
	C124.808632,756.064209 126.694702,753.081116 123.893082,751.770874 
	C121.312805,753.247375 123.076439,755.913696 121.786751,757.913513 
	C120.159889,758.839050 118.229889,758.272705 116.454697,758.174194 
	C114.725975,756.417236 116.506752,753.639465 114.341316,752.179749 
	C110.955688,752.784912 113.494781,756.402161 111.186356,757.969788 
	C108.933243,755.152405 110.722664,752.306946 110.753166,749.272095 
	C115.186859,747.574890 119.925446,750.473938 124.526825,748.412109 
z"/>
<path fill="#000000" opacity="1.000000" stroke="none" 
	d="
M183.327271,752.940796 
	C183.166245,754.767883 183.813904,756.323364 182.589981,757.865845 
	C179.317688,756.997742 181.988663,753.159607 179.751373,751.829651 
	C176.762573,752.768921 178.351379,755.577209 177.477570,757.294067 
	C171.564056,759.605469 171.564056,759.605469 169.981400,752.147888 
	C168.287720,752.320740 168.555405,753.641174 168.476608,754.727112 
	C168.393677,755.870056 168.558762,757.095276 167.266251,757.797302 
	C164.601181,757.549500 166.558441,754.365845 164.563141,753.628174 
	C162.975571,754.589661 163.380356,757.080872 161.391479,757.881104 
	C159.183960,758.055969 159.820480,755.248840 158.213242,754.656799 
	C156.957275,755.364990 157.551605,757.762512 154.969025,757.747681 
	C153.158325,755.211914 152.184555,752.237427 152.302292,748.716187 
	C154.957123,748.838318 154.159531,751.541870 155.714676,752.219238 
	C157.065918,751.780090 156.367722,749.500427 159.068924,749.426758 
	C160.094391,749.470276 159.948975,751.509827 160.958878,752.427246 
	C162.708069,751.977173 161.659760,746.975037 165.510605,749.798584 
	C165.737320,748.594543 165.971512,747.350830 166.182510,746.230286 
	C173.247147,746.262024 173.703613,751.296570 173.276596,757.971191 
	C177.161377,753.203369 174.137070,748.919495 176.814285,745.164368 
	C177.400543,749.355164 183.961105,747.320679 183.327271,752.940796 
z"/>
<path fill="#000000" opacity="1.000000" stroke="none" 
	d="
M223.994965,749.998047 
	C223.639816,752.509033 223.295776,755.034790 222.934067,757.690308 
	C219.669937,756.658020 222.378799,752.888245 219.633148,751.979675 
	C217.093536,752.983337 219.231995,756.233459 216.727463,757.544250 
	C214.600006,756.305725 216.704147,752.867310 214.061264,751.808899 
	C211.074921,752.902771 213.349792,756.135559 211.380722,758.035461 
	C209.914948,756.968994 208.406586,756.628296 206.538177,758.149841 
	C205.050308,759.361511 202.547882,759.743591 201.269043,757.578247 
	C199.969238,755.377502 200.661224,753.400757 203.442917,752.385498 
	C202.939529,751.292358 201.039551,752.421509 201.053635,750.861511 
	C201.062149,749.917358 201.719467,748.939453 202.410553,749.056274 
	C209.390518,750.236023 216.504135,746.848816 223.719620,749.871582 
	C224.026718,750.044312 224.006088,750.012756 223.994965,749.998047 
z"/>
<path fill="#000000" opacity="1.000000" stroke="none" 
	d="
M146.888977,747.020508 
	C146.968872,749.390320 147.002777,751.376221 147.053757,753.361694 
	C147.112930,755.665833 147.616089,758.050049 144.219788,758.691833 
	C142.230026,759.067871 140.450287,759.177979 139.450180,757.279663 
	C138.153275,754.818176 137.860001,751.894653 139.804337,749.859192 
	C141.469025,748.116638 144.377853,747.745117 145.756470,745.313782 
	C145.928192,745.010986 146.649002,746.011414 146.888977,747.020508 
M144.500748,754.136475 
	C144.491257,752.459351 144.191833,750.956909 142.030487,752.089966 
	C140.973801,752.643860 140.487396,753.849609 141.173813,755.020508 
	C142.364777,757.052307 143.412857,756.308044 144.500748,754.136475 
z"/>
<path fill="#000000" opacity="1.000000" stroke="none" 
	d="
M199.052094,754.564758 
	C198.971924,758.697449 196.225967,759.456055 193.276321,758.842957 
	C189.420898,758.041687 188.743073,754.621338 188.924133,751.378479 
	C189.103592,748.164673 190.500443,745.572632 194.464294,745.677612 
	C197.109222,745.747742 198.899643,746.511292 198.736832,749.543762 
	C196.573608,750.349487 196.160156,747.802002 194.003693,748.069641 
	C190.984253,750.302063 190.293213,753.006775 193.207520,756.011169 
	C195.834442,756.821533 196.423630,752.992981 199.052094,754.564758 
z"/>
<path fill="#000000" opacity="1.000000" stroke="none" 
	d="
M270.908081,757.641602 
	C266.529236,757.567139 270.294159,752.991821 267.283417,751.920654 
	C264.150635,752.427063 266.350708,756.072693 264.169525,757.507751 
	C261.954803,755.155945 262.246826,752.280334 263.370270,749.901855 
	C264.319153,747.892944 266.901154,748.370789 268.767883,748.856079 
	C271.659668,749.607910 271.520538,752.219971 271.580627,754.519226 
	C271.605682,755.477173 271.296600,756.443787 270.908081,757.641602 
z"/>
<path fill="#000000" opacity="1.000000" stroke="none" 
	d="
M295.763855,185.422607 
	C298.607727,192.758957 301.174011,199.799057 304.040100,206.714890 
	C305.207489,209.531754 304.657959,211.116913 301.845276,212.054871 
	C300.581360,212.476364 299.212921,212.749298 298.098999,213.429031 
	C290.064575,218.331711 289.724091,216.476852 286.554077,208.193604 
	C280.075348,191.264679 273.250153,174.468567 266.617737,157.598068 
	C265.221649,154.046997 264.156677,150.364487 262.727386,146.828125 
	C261.408356,143.564560 262.601959,142.035431 265.678467,140.795456 
	C276.931946,136.259720 288.090302,131.488525 299.297638,126.837654 
	C311.747040,121.671341 325.632111,130.654373 327.204193,144.863739 
	C327.988617,151.953934 326.898926,158.487823 321.693695,163.850189 
	C321.006836,164.557770 320.481628,165.432297 319.946899,166.271149 
	C319.791931,166.514221 319.864471,166.902298 319.803223,167.522873 
	C331.867432,172.448257 341.002716,181.653244 352.493347,189.743790 
	C346.121979,193.259338 340.775757,195.663223 335.018768,196.991318 
	C333.200775,197.410706 331.676270,195.829346 330.173065,194.746811 
	C322.613586,189.302750 315.412811,183.352188 307.226349,178.790222 
	C304.355896,177.190643 301.649872,177.106110 298.619232,178.107697 
	C294.860565,179.349854 293.241852,181.293945 295.763855,185.422607 
M284.886200,157.725250 
	C285.726013,159.712540 286.526703,161.717590 287.418121,163.681458 
	C288.118073,165.223587 289.275482,166.030106 291.025238,165.384857 
	C296.788849,163.259460 302.576691,161.163086 307.583252,157.471558 
	C310.940460,154.996155 312.094116,150.084381 310.314087,146.327637 
	C308.605255,142.721100 304.503601,141.105072 300.064880,142.618103 
	C296.141449,143.955505 292.305420,145.566223 288.483795,147.181702 
	C281.793488,150.009796 281.810516,150.050064 284.886200,157.725250 
z"/>
<path fill="#000000" opacity="1.000000" stroke="none" 
	d="
M539.423584,149.856903 
	C540.952576,166.854156 537.617249,182.017029 526.113403,194.629349 
	C519.399414,201.990341 510.774109,203.625854 501.431305,201.629807 
	C491.007355,199.402771 481.241913,194.975754 471.044800,191.957932 
	C468.438995,191.186752 467.840546,189.447510 468.558777,186.916885 
	C474.906128,164.553284 481.240417,142.185883 487.501190,119.797951 
	C488.463684,116.356186 490.147980,115.158775 493.685516,116.438881 
	C502.567291,119.652863 511.564178,122.552055 520.420471,125.832489 
	C531.370544,129.888519 537.468506,138.011093 539.423584,149.856903 
M492.101746,164.529282 
	C491.754120,165.985123 491.432190,167.447662 491.054962,168.895767 
	C487.288239,183.355087 487.379425,183.505997 502.027374,186.618591 
	C502.190247,186.653198 502.354431,186.682861 502.519073,186.707916 
	C508.117310,187.560013 512.661011,186.056564 515.889832,181.098251 
	C520.452148,174.092148 522.767578,166.253967 523.707886,158.139679 
	C524.916870,147.706543 521.803467,142.908936 512.167358,138.568222 
	C509.905975,137.549530 507.456390,136.956497 505.155457,136.015823 
	C501.780487,134.636063 500.008331,135.435791 499.072418,139.211227 
	C497.032196,147.441040 494.585815,155.570160 492.101746,164.529282 
z"/>
<path fill="#000000" opacity="1.000000" stroke="none" 
	d="
M229.317566,222.067596 
	C224.081131,222.944229 221.735428,227.333496 218.425964,230.394684 
	C209.014572,239.099976 209.053833,239.247757 216.899445,249.439392 
	C220.147003,253.658051 223.682602,257.655975 227.114365,261.731445 
	C229.241058,264.257019 229.728439,266.130615 226.575653,268.707642 
	C217.141983,276.418518 217.354324,276.520477 209.740906,267.278931 
	C196.839066,251.618011 183.882401,236.001312 170.813950,220.479538 
	C168.529861,217.766617 168.311874,215.940613 170.983185,213.339523 
	C179.558807,204.989410 179.514130,204.871979 187.350784,213.849777 
	C190.414291,217.359360 193.260696,221.058121 196.216492,224.662079 
	C198.209045,227.091583 200.149826,227.184769 202.485519,224.900177 
	C207.116791,220.370239 211.835114,215.919708 216.692810,211.635178 
	C218.911041,209.678696 218.574081,208.159393 216.887939,206.194214 
	C212.227829,200.762924 207.794937,195.129501 202.984802,189.837204 
	C200.675598,187.296494 200.530319,185.398407 203.051819,183.135300 
	C205.397110,181.030334 207.658981,178.831131 209.926743,176.641464 
	C212.180084,174.465714 213.822968,175.748550 215.334015,177.576477 
	C225.927048,190.390854 236.502029,203.220154 247.091553,216.037445 
	C251.116669,220.909317 255.128830,225.792709 259.216431,230.611862 
	C261.593903,233.414795 262.635468,235.871277 258.670044,238.306885 
	C257.006104,239.328934 255.563019,240.863297 254.337189,242.415588 
	C251.396347,246.139603 249.132370,245.312363 246.428879,241.990265 
	C240.969238,235.281311 235.225235,228.803772 229.317566,222.067596 
z"/>
<path fill="#000000" opacity="1.000000" stroke="none" 
	d="
M122.903732,328.234314 
	C111.930832,319.692017 112.311302,305.027130 119.044685,291.979523 
	C120.935226,288.316101 123.478149,284.940582 126.038704,281.682007 
	C131.231888,275.073120 142.700867,272.576477 150.198486,276.166992 
	C152.649292,277.340637 153.934555,278.734344 152.263458,281.612274 
	C150.935242,283.899719 150.066956,286.453339 148.981934,288.883179 
	C147.730850,291.684906 146.202377,293.651794 142.514633,292.529053 
	C138.952393,291.444550 136.029282,292.979950 133.723709,295.798767 
	C130.787857,299.388245 129.209167,303.543762 128.731873,308.095734 
	C128.518829,310.127655 128.989182,312.025757 130.960526,313.281830 
	C132.925491,314.533875 134.686890,314.232239 136.546158,313.075104 
	C140.141434,310.837524 142.703735,307.564545 145.512604,304.504486 
	C150.313171,299.274567 154.450684,293.349609 161.404297,290.427032 
	C169.060623,287.209167 176.191162,288.207001 182.601990,292.988464 
	C189.533615,298.158325 193.279221,305.310425 192.734207,314.121765 
	C192.129868,323.892303 187.882156,332.375092 182.250259,340.137817 
	C175.336975,349.666779 164.556870,352.907928 153.477798,349.303772 
	C150.239319,348.250244 149.089844,346.527191 150.625916,343.343994 
	C150.915176,342.744507 151.251495,342.146454 151.411026,341.508942 
	C152.972366,335.269440 155.261078,330.844086 163.389221,332.721497 
	C171.507996,334.596710 180.416763,318.334595 176.614532,311.222382 
	C174.097122,306.513489 168.184479,305.755829 163.992386,309.925323 
	C158.456726,315.431122 153.946686,321.924133 147.643539,326.701233 
	C139.113907,333.165894 132.264496,333.705597 122.903732,328.234314 
z"/>
<path fill="#000000" opacity="1.000000" stroke="none" 
	d="
M611.160034,252.117706 
	C607.696106,256.618408 604.403992,260.802612 601.186462,265.043365 
	C599.626709,267.099121 598.272644,267.226990 596.323242,265.359680 
	C585.505371,254.997604 584.853394,258.921875 594.364319,246.207382 
	C597.156494,242.474701 599.943726,238.730179 602.916748,235.143280 
	C605.466248,232.067352 605.151855,229.538895 602.213989,226.979614 
	C597.697693,223.045288 593.244568,219.036667 588.827087,214.991364 
	C586.451843,212.816147 584.644775,212.973083 582.708435,215.665283 
	C578.239868,221.878098 573.517517,227.908096 569.037415,234.112915 
	C566.730835,237.307465 564.788391,237.611115 561.898865,234.610626 
	C553.927673,226.333359 553.820129,226.411865 560.688538,217.327133 
	C572.727905,201.402908 584.827148,185.523712 596.794678,169.545761 
	C598.586609,167.153290 599.856140,166.727173 602.338623,168.744797 
	C612.532471,177.029953 612.575745,176.944244 604.521301,187.304749 
	C601.866516,190.719666 599.333618,194.229095 596.717041,197.674057 
	C595.138550,199.752243 595.230408,201.472916 597.326477,203.256500 
	C601.886353,207.136444 606.546082,210.943420 610.729187,215.207703 
	C614.131958,218.676392 616.310364,217.558609 618.687805,214.327835 
	C622.431396,209.240524 626.240234,204.200897 630.056396,199.167572 
	C630.741150,198.264481 631.594666,197.489319 632.717407,196.281677 
	C636.338196,199.417221 640.035034,202.208466 643.202637,205.507812 
	C645.267639,207.658737 643.294006,209.786301 641.866516,211.663483 
	C631.691101,225.044861 621.528931,238.436264 611.160034,252.117706 
z"/>
<path fill="#000000" opacity="1.000000" stroke="none" 
	d="
M421.157013,172.782425 
	C419.992249,168.854980 417.546631,167.233383 413.921661,167.466629 
	C407.610016,167.872726 401.309601,168.464737 394.995422,168.815750 
	C391.765533,168.995331 390.204559,170.475540 389.861237,173.678925 
	C389.686829,175.305954 389.154877,176.972351 388.428680,178.445511 
	C387.132568,181.074829 388.366852,185.139999 385.198486,186.440948 
	C381.000305,188.164764 376.272125,187.378159 371.851868,187.088043 
	C368.728851,186.883041 369.731171,183.851120 370.308289,181.846436 
	C372.103882,175.609192 373.800293,169.326889 375.973694,163.218079 
	C381.997559,146.286499 386.652313,128.938889 391.802002,111.744255 
	C392.966614,107.855598 395.124268,107.353882 398.764526,106.440689 
	C407.977203,104.129570 411.806763,108.366417 414.964935,116.093094 
	C423.588562,137.191498 432.772797,158.060257 441.648926,179.056366 
	C443.583923,183.633499 442.629303,183.569321 437.828522,184.738235 
	C428.036041,187.122498 423.771301,182.599823 421.741943,174.028580 
	C421.666870,173.711304 421.465179,173.424011 421.157013,172.782425 
M399.941559,153.547836 
	C402.917053,153.346848 405.892334,153.142303 408.868164,152.946121 
	C410.871643,152.814041 412.278656,151.869537 411.479706,149.783600 
	C409.022675,143.368652 406.814880,136.823807 402.665131,130.759354 
	C400.144165,137.454636 398.193268,144.175537 396.483368,150.957230 
	C396.018036,152.802811 397.427307,153.607193 399.941559,153.547836 
z"/>
<path fill="#000000" opacity="1.000000" stroke="none" 
	d="
M678.370361,322.351196 
	C671.725830,332.334717 665.291992,342.027527 658.739441,351.639374 
	C655.841675,355.889984 654.538025,355.889740 652.227417,351.433350 
	C645.481262,338.422668 644.094788,342.480835 653.428040,329.839783 
	C655.862244,326.542908 656.124939,323.889008 653.854553,320.407959 
	C650.407043,315.122437 647.345398,309.577087 644.283264,304.051575 
	C642.617737,301.046234 640.727295,299.925751 637.042603,300.723938 
	C625.351135,303.256531 625.315613,303.079163 619.150391,292.868164 
	C618.298218,291.456787 617.234070,290.144226 617.169861,287.869873 
	C623.605957,284.962738 630.780029,284.266632 637.706604,283.234314 
	C654.158142,280.782379 670.342773,276.993866 686.694946,274.067078 
	C691.474365,273.211609 693.603577,274.384705 696.530823,278.532074 
	C701.609253,285.727295 700.661987,290.928650 695.486694,297.399261 
	C689.277527,305.162506 684.136353,313.779968 678.370361,322.351196 
M671.342590,293.376587 
	C666.827087,294.792755 661.916443,294.837402 657.260864,297.216156 
	C659.861328,301.975494 661.142151,307.158539 665.552979,311.148468 
	C670.779358,305.628265 674.583862,299.610596 678.472717,293.331177 
	C675.956177,292.696289 674.014038,292.595245 671.342590,293.376587 
z"/>
<path fill="#000000" opacity="1.000000" stroke="none" 
	d="
M126.163773,476.361389 
	C116.908653,480.853302 106.701904,477.243500 102.384483,467.950531 
	C98.284920,459.126495 98.303925,445.834839 105.294502,438.788025 
	C108.394997,435.662628 111.720016,433.699554 116.175606,433.521790 
	C122.890907,433.253937 123.987068,434.187531 124.037666,441.088531 
	C127.050438,442.466797 130.129059,441.248260 133.196198,441.090149 
	C137.019928,440.893005 140.851593,440.839661 144.680527,440.756836 
	C146.659164,440.713989 148.549347,441.029694 148.413101,443.600494 
	C148.301651,445.703369 149.520569,448.249817 146.045212,449.303833 
	C142.681747,450.323944 140.959946,455.151703 142.265350,458.552063 
	C145.267136,466.371124 141.786102,472.533325 133.492188,473.785675 
	C130.979309,474.165100 128.568924,474.555542 126.163773,476.361389 
M114.574867,453.078186 
	C116.741096,449.858887 119.344887,446.859528 120.068565,442.565308 
	C115.435692,441.460510 112.541344,443.521698 110.259514,446.878998 
	C107.678169,450.677063 107.405632,454.629272 109.234291,459.023926 
	C111.890236,457.659424 112.992523,455.628235 114.574867,453.078186 
M125.583115,450.942474 
	C122.478661,453.342621 120.627411,456.588501 118.885880,460.486328 
	C123.436447,460.117065 126.008575,463.649719 129.663361,464.579254 
	C131.060837,464.934662 132.975235,465.415497 133.271347,463.271790 
	C133.506348,461.570679 131.858704,461.269165 130.483414,461.135284 
	C129.655823,461.054718 128.814743,461.107635 127.988625,461.018280 
	C125.926109,460.795258 124.520782,459.724426 124.313751,457.596802 
	C124.092705,455.325195 124.507408,453.312714 126.984192,452.256470 
	C128.122009,451.771179 129.723648,452.386932 130.497513,450.823578 
	C129.065292,449.800751 127.631355,450.367065 125.583115,450.942474 
z"/>
<path fill="#000000" opacity="1.000000" stroke="none" 
	d="
M130.141174,418.877747 
	C134.621979,418.790100 138.620865,418.741638 142.618408,418.641083 
	C145.346680,418.572479 147.117050,419.447479 147.173508,422.555450 
	C147.226624,425.478973 145.530655,426.208588 143.048965,426.335571 
	C129.415375,427.033142 115.783020,427.756256 102.152328,428.508484 
	C99.371689,428.661957 98.290100,427.211914 97.973854,424.680481 
	C97.652290,422.106598 98.977692,421.035919 101.252579,420.594299 
	C107.028175,419.473053 112.884811,420.041534 118.697113,419.707184 
	C122.354446,419.496765 126.005051,419.169556 130.141174,418.877747 
z"/>
<path fill="#000000" opacity="1.000000" stroke="none" 
	d="
M461.964508,647.964355 
	C463.838165,646.335938 466.034912,646.633667 468.146515,647.115906 
	C473.664886,648.376282 479.175720,649.665100 484.838409,650.069458 
	C488.777924,650.350647 489.697571,652.932434 489.763092,656.246826 
	C489.811249,658.683044 488.932251,660.115295 486.189453,659.633728 
	C483.242188,659.116333 480.299072,658.542908 477.330811,658.190430 
	C475.738129,658.001282 473.699280,657.717834 473.442108,660.113525 
	C473.236420,662.030090 474.815582,662.560303 476.356598,662.883118 
	C479.126343,663.463379 481.876221,664.259094 484.677124,664.542175 
	C489.163177,664.995605 489.630493,667.972534 489.097595,671.344238 
	C488.515320,675.028381 485.583710,673.476807 483.486115,673.316162 
	C481.171967,673.138977 478.892517,672.544128 476.580322,672.295105 
	C474.690002,672.091492 473.309265,672.752808 473.238617,674.981934 
	C473.179718,676.840149 473.646454,678.266602 475.735016,678.669189 
	C479.485138,679.392334 483.201508,680.375000 486.982391,680.832336 
	C491.389343,681.365417 491.920288,684.429626 491.644165,687.695190 
	C491.302582,691.734924 488.065430,690.497070 485.857452,689.994507 
	C476.271698,687.812866 466.570831,686.457458 456.800873,685.550903 
	C453.083191,685.205933 450.736328,683.495178 449.390778,679.917725 
	C448.405426,677.297913 446.823944,674.889648 445.389984,672.456787 
	C444.718079,671.316895 443.807251,670.165039 442.207458,670.572632 
	C440.655762,670.967957 440.394470,672.282532 440.197662,673.677979 
	C439.745331,676.885010 441.683929,680.743652 438.811768,683.197754 
	C436.215515,685.416016 432.536316,682.978516 429.661469,683.758850 
	C422.071655,685.818787 417.692383,682.418640 414.461853,676.174988 
	C413.777588,674.852417 412.886322,673.626099 411.999939,672.422119 
	C411.186768,671.317505 410.122681,670.323059 408.644989,670.800232 
	C407.111816,671.295410 407.036041,672.823547 407.008392,674.143066 
	C406.963043,676.305420 406.996765,678.476196 407.137726,680.634216 
	C407.400543,684.659058 404.960388,685.813965 401.579620,686.108398 
	C397.856232,686.432678 397.052307,684.151489 397.015930,681.116882 
	C396.890198,670.622986 396.787262,660.128601 396.596313,649.635864 
	C396.550385,647.110413 397.302734,645.330505 400.013763,645.051147 
	C404.638306,644.574646 409.274384,643.865417 413.905396,643.867126 
	C424.254883,643.870850 429.499237,653.240356 424.617645,662.410095 
	C423.631378,664.262756 420.630920,665.641052 421.692474,667.825745 
	C423.379395,671.297485 424.933807,675.111572 428.449249,677.425842 
	C430.691528,676.059265 430.517975,674.089233 430.447235,672.064575 
	C430.173981,664.244995 430.012909,656.421387 429.730621,648.602173 
	C429.613403,645.355896 430.712097,643.587341 434.285461,643.647400 
	C437.484161,643.701233 439.349182,644.675354 439.287994,648.246460 
	C439.255219,650.158630 438.730347,652.267639 440.452148,654.168457 
	C444.181335,653.769348 445.369598,650.170288 447.624420,648.031128 
	C451.601868,644.257751 456.984833,643.847900 461.623566,647.928467 
	C458.657623,651.432678 455.773987,654.404785 452.970154,657.450439 
	C451.570770,658.970520 450.472565,660.836731 451.477966,662.877197 
	C454.516418,669.043701 457.812439,675.074768 462.234894,680.580444 
	C462.976440,669.619385 463.490021,658.785706 461.964508,647.964355 
M410.110779,653.789368 
	C408.392273,654.119385 406.869415,654.704895 406.540955,656.713135 
	C406.368866,657.765320 406.533722,658.909546 407.559601,659.298218 
	C409.986145,660.217590 412.452637,660.082275 414.785156,658.853577 
	C415.885681,658.273865 416.852325,657.345215 416.301636,656.075623 
	C415.273560,653.705627 413.075928,653.501282 410.110779,653.789368 
z"/>
<path fill="#000000" opacity="1.000000" stroke="none" 
	d="
M504.196869,683.561523 
	C508.730804,686.627258 513.828552,686.960693 518.535156,688.488953 
	C520.862000,689.244446 521.772278,687.668274 522.482300,685.783508 
	C524.591370,680.184937 526.730225,674.596619 528.944458,669.039001 
	C529.808838,666.869629 529.638672,663.346558 533.053833,663.684204 
	C536.636658,664.038452 540.061218,665.091797 541.495728,669.426025 
	C544.520996,678.567200 547.941589,687.577576 551.207275,696.639038 
	C552.316406,699.716736 553.447571,702.786499 554.578674,705.887207 
	C548.901184,707.400024 544.817688,705.775696 543.615601,700.966675 
	C542.145752,695.086670 537.560608,694.500977 533.020813,693.600342 
	C531.060852,693.211426 529.946838,694.706177 529.340027,696.330811 
	C528.288147,699.146790 526.218994,699.526428 523.693542,698.923340 
	C515.781738,697.034180 507.908905,694.967041 499.958130,693.261841 
	C495.473907,692.300171 493.600586,690.144348 493.715973,685.371277 
	C493.928589,676.575745 494.287842,667.750366 493.068878,658.966248 
	C492.736420,656.570251 492.238129,653.313293 495.959900,653.336121 
	C499.124146,653.355469 503.017212,653.502930 503.082123,658.371277 
	C503.168610,664.859436 503.194611,671.348328 503.282715,677.836426 
	C503.307343,679.652100 503.096741,681.513428 504.196869,683.561523 
z"/>
<path fill="#000000" opacity="1.000000" stroke="none" 
	d="
M301.714050,712.586792 
	C296.219086,713.893860 295.902863,713.492859 296.116028,708.483765 
	C296.469788,700.169861 295.689209,691.882019 294.859619,683.622498 
	C294.383728,678.884766 296.092621,676.036194 300.673828,674.640991 
	C304.323639,673.529419 307.823456,671.928772 311.466492,670.790527 
	C315.289734,669.596008 319.449341,668.218994 322.624268,671.872253 
	C325.969452,675.721497 326.225861,680.884399 323.215271,684.384583 
	C317.931396,690.527832 321.677185,694.297119 325.255493,698.672363 
	C326.558899,700.266052 329.540466,701.724243 326.812531,704.399963 
	C324.273163,706.890625 318.445160,707.017822 316.480743,704.740295 
	C314.637512,702.603333 312.892426,700.381348 311.035706,698.256592 
	C310.142639,697.234558 309.060913,696.411865 307.541870,696.927246 
	C305.866547,697.495728 305.314514,698.826782 305.282837,700.439331 
	C305.237061,702.769836 305.159912,705.104736 305.253448,707.431519 
	C305.352478,709.893677 304.514679,711.639893 301.714050,712.586792 
M306.154419,682.656555 
	C304.390198,686.174927 305.890228,687.261047 309.246094,686.539917 
	C311.341370,686.089722 313.267273,685.080017 314.195038,682.909851 
	C314.565674,682.042847 314.263733,681.221497 313.497009,680.789185 
	C311.537292,679.684265 309.702972,680.517334 307.911530,681.363953 
	C307.472717,681.571350 307.083862,681.884521 306.154419,682.656555 
z"/>
<path fill="#000000" opacity="1.000000" stroke="none" 
	d="
M335.137207,699.400879 
	C328.160706,696.179016 327.626038,689.909302 327.408600,683.974243 
	C327.035065,673.781555 331.848999,662.836609 342.027557,658.988403 
	C350.982025,655.603027 357.933685,658.847351 360.701813,668.015625 
	C364.839142,681.718628 357.582642,696.184509 344.845673,699.660522 
	C341.715698,700.514648 338.616302,700.664734 335.137207,699.400879 
M344.883759,689.725342 
	C351.269653,686.575928 354.312042,677.125000 350.849518,671.027466 
	C348.847748,667.502441 346.214020,666.677368 342.648926,669.064758 
	C337.114349,672.770996 336.723816,678.263977 337.299377,684.039490 
	C337.693207,687.991638 339.536621,690.624817 344.883759,689.725342 
z"/>
<path fill="#000000" opacity="1.000000" stroke="none" 
	d="
M387.333252,647.183594 
	C390.379852,646.605957 392.308777,646.959778 392.378723,650.380310 
	C392.535187,658.027954 393.047119,665.671631 393.070953,673.317993 
	C393.106232,684.626648 386.138275,691.295410 374.813629,691.157715 
	C369.475739,691.092834 366.261780,688.873657 365.049164,683.654358 
	C362.879974,674.318298 363.862335,664.766052 363.711121,655.307068 
	C363.652618,651.647888 367.236450,651.668884 369.707947,651.359497 
	C372.785187,650.974243 372.962616,653.524902 373.054108,655.756714 
	C373.333282,662.564331 372.808136,669.406128 374.064697,676.173950 
	C374.477325,678.396301 374.782684,680.596558 377.604431,680.835327 
	C380.658173,681.093811 382.077209,679.273499 382.835724,676.562927 
	C383.611877,673.789368 383.680267,671.024963 383.483582,668.165283 
	C383.141357,663.189758 383.146576,658.190857 382.833252,653.212646 
	C382.633148,650.032532 383.993713,648.164856 387.333252,647.183594 
z"/>
<path fill="#000000" opacity="1.000000" stroke="none" 
	d="
M36.267658,756.782776 
	C33.100029,756.030640 30.819330,754.969910 33.279537,751.692383 
	C34.536404,750.017944 33.068714,748.925171 32.888397,747.556458 
	C32.608047,745.428528 32.085159,743.122070 34.133572,741.531677 
	C36.334095,739.823181 38.903038,740.533020 41.343052,740.849792 
	C42.183056,740.958862 42.847195,741.689758 42.918995,742.586914 
	C43.092060,744.749512 41.234039,744.984802 39.451565,745.364014 
	C41.846428,747.512329 44.804546,748.851868 43.680435,752.449890 
	C42.600033,755.908020 39.844120,756.753601 36.267658,756.782776 
z"/>
<path fill="#000000" opacity="1.000000" stroke="none" 
	d="
M26.732201,740.160889 
	C28.877819,740.640137 30.423410,741.355286 29.873682,743.533752 
	C29.462467,745.163452 27.987637,745.142578 26.618414,745.084656 
	C24.177433,744.981323 22.110344,745.654297 22.252934,748.518982 
	C22.410818,751.691040 24.425783,752.184204 27.182547,751.350647 
	C28.924007,750.824097 30.222958,751.881104 30.590731,753.432190 
	C31.128620,755.700806 29.216524,756.281372 27.591543,756.501953 
	C24.236223,756.957275 20.899176,756.863403 18.519838,753.887085 
	C16.352098,751.175415 16.055563,748.137512 17.469179,745.007629 
	C19.183842,741.211182 22.226482,739.663269 26.732201,740.160889 
z"/>
</svg>